<?xml version="1.0" encoding="UTF-8"?>
<!-- Generator: Adobe Illustrator 23.0.0, SVG Export Plug-In . SVG Version: 6.00 Build 0)  -->
<svg version="1.1" id="Layer_1" xmlns="http://www.w3.org/2000/svg" xmlns:xlink="http://www.w3.org/1999/xlink" x="0px" y="0px" viewBox="0 0 417.49 189.7" style="enable-background:new 0 0 417.49 189.7;" xml:space="preserve">
<style type="text/css">
	.st0{clip-path:url(#SVGID_2_);fill-rule:evenodd;clip-rule:evenodd;fill:#1C305D;}
	.st1{clip-path:url(#SVGID_2_);fill-rule:evenodd;clip-rule:evenodd;fill:#13589A;}
	.st2{clip-path:url(#SVGID_2_);fill-rule:evenodd;clip-rule:evenodd;fill:#3E91CE;}
	.st3{clip-path:url(#SVGID_2_);fill-rule:evenodd;clip-rule:evenodd;fill:#FFFFFF;}
	.st4{clip-path:url(#SVGID_2_);fill-rule:evenodd;clip-rule:evenodd;fill:#53C0A1;}
	.st5{clip-path:url(#SVGID_2_);fill-rule:evenodd;clip-rule:evenodd;fill:#F07E22;}
	.st6{clip-path:url(#SVGID_2_);fill-rule:evenodd;clip-rule:evenodd;fill:#F3B01C;}
	.st7{clip-path:url(#SVGID_2_);fill:#13589A;}
	.st8{clip-path:url(#SVGID_2_);fill:#3E91CE;}
	.st9{clip-path:url(#SVGID_2_);fill:#F3B01C;}
	.st10{clip-path:url(#SVGID_2_);}
	.st11{clip-path:url(#SVGID_4_);fill:#1C305D;}
	.st12{clip-path:url(#SVGID_4_);fill:#F07E22;}
</style>
<g id="Artwork_2_2_">
	<g>
		<defs>
			<rect id="SVGID_1_" x="4.19" y="3.3" width="409.11" height="183.1"/>
		</defs>
		<clipPath id="SVGID_2_">
			<use xlink:href="#SVGID_1_" style="overflow:visible;"/>
		</clipPath>
		<polygon class="st0" points="196.57,37.25 236.03,30.58 238.93,28.25   "/>
		<polygon class="st1" points="196.57,37.25 238.93,28.25 196.1,32.82   "/>
		<polygon class="st2" points="173.07,65.98 196.57,37.25 151.59,60.75   "/>
		<polygon class="st0" points="151.59,60.75 196.57,37.25 196.1,32.82 195.41,32.9 165.81,27.67   "/>
		<polygon class="st1" points="151.59,60.75 160.59,89.48 173.07,65.98   "/>
		<polygon class="st3" points="160.59,89.48 151.59,60.75 121.56,94.85   "/>
		<polygon class="st4" points="121.56,94.85 151.59,60.75 130.26,57.98   "/>
		<polygon class="st0" points="151.59,60.75 121.56,94.85 160.59,89.48   "/>
		<polygon class="st1" points="130.26,57.98 151.59,60.75 165.81,27.67 130.54,56.79   "/>
		<polygon class="st5" points="160.59,89.48 121.56,94.85 126.93,122.56   "/>
		<polygon class="st6" points="121.56,94.85 95.3,138.81 126.93,122.56   "/>
		<polygon class="st0" points="95.3,138.81 121.56,94.85 79.92,129.52 98.2,164.92   "/>
		<polygon class="st2" points="98.2,164.92 79.92,129.52 86.6,163.18   "/>
		<polygon class="st7" points="106.91,185.82 98.2,164.92 86.6,163.18   "/>
		<polygon class="st8" points="106.91,185.82 111.55,186.4 98.2,164.92   "/>
		<polygon class="st5" points="77.6,32.32 104.88,43.05 73.25,5.33   "/>
		<polygon class="st2" points="121.56,94.85 85.14,96.73 79.92,129.52   "/>
		<polygon class="st1" points="85.14,96.73 121.56,94.85 91.01,67.07 89.26,65.78 62.59,75.94   "/>
		<polygon class="st0" points="62.59,75.94 89.26,65.78 47.1,34.81 21.02,40.44   "/>
		<polygon class="st7" points="4.19,3.3 21.02,40.44 47.1,34.81   "/>
		<polygon class="st0" points="110.95,49.87 89.5,65.69 91.01,67.07 121.56,94.85 130.26,57.98 130.54,56.79 129.25,57.85   "/>
		<polygon class="st1" points="89.5,65.69 110.95,49.87 66.72,30.58   "/>
		<polygon class="st5" points="89.5,65.69 66.72,30.58 47.1,34.81 89.26,65.78   "/>
		<polygon class="st9" points="4.19,3.3 47.1,34.81 66.72,30.58   "/>
		<g class="st10">
			<defs>
				<rect id="SVGID_3_" x="4.19" y="3.3" width="409.11" height="183.1"/>
			</defs>
			<clipPath id="SVGID_4_">
				<use xlink:href="#SVGID_3_" style="overflow:visible;"/>
			</clipPath>
			<path class="st11" d="M167.54,134.47c0,1.84-0.24,7.07-6.83,7.07c-2.73,0-5.17-0.77-5.17-3.92c0-3.09,2.38-3.98,4.99-4.51     c2.61-0.47,5.58-0.53,7.01-1.78V134.47z M156.5,125.09c0.3-3.32,2.38-4.63,5.58-4.63c2.97,0,5.46,0.53,5.46,4.16     c0,3.44-4.81,3.26-9.98,4.04c-5.23,0.71-10.45,2.38-10.45,9.32c0,6.29,4.63,9.2,10.45,9.2c3.74,0,7.66-1.01,10.33-3.8     c0.06,1.01,0.3,2.02,0.59,2.97h8.55c-0.77-1.25-1.07-4.04-1.07-6.83v-15.97c0-7.36-7.36-8.73-13.48-8.73     c-6.89,0-13.96,2.37-14.43,10.27H156.5z M180.7,146.35h8.43v-13.84c0-5.4,2.14-9.86,8.31-9.86c1.01,0,2.26,0.12,3.03,0.3v-7.84     c-0.53-0.18-1.25-0.3-1.84-0.3c-4.1,0-8.26,2.67-9.8,6.53h-0.12v-5.7h-8.02V146.35z M202.78,146.35h8.43v-10.57l3.27-3.15     l8.43,13.72h10.21l-12.88-19.42l11.58-11.28h-9.98l-10.63,11.04v-22.74h-8.43V146.35z M253.41,134.47c0,1.84-0.24,7.07-6.83,7.07     c-2.73,0-5.16-0.77-5.16-3.92c0-3.09,2.37-3.98,4.99-4.51c2.61-0.47,5.58-0.53,7.01-1.78V134.47z M242.36,125.09     c0.3-3.32,2.38-4.63,5.58-4.63c2.97,0,5.46,0.53,5.46,4.16c0,3.44-4.81,3.26-9.97,4.04c-5.23,0.71-10.45,2.38-10.45,9.32     c0,6.29,4.63,9.2,10.45,9.2c3.74,0,7.66-1.01,10.33-3.8c0.06,1.01,0.3,2.02,0.59,2.97h8.55c-0.77-1.25-1.07-4.04-1.07-6.83     v-15.97c0-7.36-7.36-8.73-13.48-8.73c-6.89,0-13.95,2.37-14.43,10.27H242.36z M288.48,146.35h8.02v-42.4h-8.43v15.44h-0.12     c-1.9-3.03-5.46-4.57-9.09-4.57c-9.03,0-13.6,7.66-13.6,15.91c0,8.49,4.51,16.45,13.78,16.45c3.92,0,7.36-1.43,9.32-4.75h0.12     V146.35z M288.36,130.91c0,5.05-1.66,9.92-7.24,9.92c-5.23,0-7.42-5.05-7.42-9.86c0-5.05,1.9-9.8,7.42-9.8     C286.58,121.17,288.36,125.92,288.36,130.91 M330.15,133.04c0.59-9.44-4.45-18.23-14.9-18.23c-9.32,0-15.68,7-15.68,16.21     c0,9.5,6,16.15,15.68,16.15c6.95,0,11.99-3.09,14.37-10.33h-7.42c-0.53,1.9-3.26,3.98-6.65,3.98c-4.69,0-7.3-2.43-7.54-7.78     H330.15z M308,127.7c0.12-2.38,1.66-6.53,7.01-6.53c4.1,0,5.94,2.26,6.71,6.53H308z M333.57,146.35h8.43v-17.82     c0-6,4.04-7.07,5.7-7.07c5.35,0,5.11,4.1,5.11,7.66v17.22h8.43v-17.1c0-3.86,0.89-7.78,5.64-7.78c4.81,0,5.17,3.39,5.17,7.48     v17.4h8.43V125.8c0-7.96-4.69-10.98-11.22-10.98c-4.27,0-7.48,2.43-9.26,5.1c-1.66-3.68-5.11-5.1-8.97-5.1     c-3.98,0-7.19,1.84-9.38,4.99h-0.12v-4.16h-7.96V146.35z M413.3,115.65h-8.73l-6.71,21.02h-0.12l-6.95-21.02h-9.03l10.81,28.8     c0.95,2.43,0,5.46-2.91,5.76c-1.66,0.06-3.32-0.18-4.93-0.3v6.95c1.72,0.18,3.44,0.3,5.17,0.3c5.82,0,8.73-2.02,10.57-6.95     L413.3,115.65z"/>
			<polygon class="st12" points="154.18,160.09 147.48,160.09 147.48,158.91 147.48,157.72 163.56,157.72 163.56,158.91      163.56,160.09 156.86,160.09 156.86,177.54 155.53,177.54 154.18,177.54    "/>
			<path class="st12" d="M171.62,177.93c-2.04,0-3.65-0.65-4.81-1.94c-1.17-1.29-1.75-3.08-1.75-5.37c0-2.43,0.62-4.36,1.86-5.79     c1.24-1.43,2.89-2.15,4.98-2.15c1.89,0,3.41,0.7,4.57,2.1c1.16,1.4,1.74,3.24,1.74,5.53l-0.03,0.86h-10.53     c0.1,1.44,0.43,2.54,0.98,3.29c0.68,0.92,1.76,1.38,3.23,1.38c0.93,0,1.73-0.26,2.43-0.78c0.69-0.52,1.11-1.19,1.27-2h2.4     c-0.36,1.58-1.08,2.79-2.15,3.62C174.71,177.51,173.32,177.93,171.62,177.93 M175.67,169.22c-0.07-1.34-0.4-2.38-1-3.13     c-0.66-0.83-1.62-1.24-2.89-1.24c-1.28,0-2.3,0.48-3.06,1.43c-0.6,0.75-0.97,1.73-1.09,2.94H175.67z"/>
			<path class="st12" d="M192.47,172.35c-0.25,1.81-0.89,3.2-1.93,4.15c-1.03,0.95-2.41,1.43-4.12,1.43c-1.91,0-3.44-0.69-4.58-2.06     c-1.14-1.38-1.71-3.23-1.71-5.55c0-2.33,0.59-4.18,1.77-5.56c1.18-1.38,2.77-2.07,4.76-2.07c1.73,0,3.12,0.47,4.15,1.42     c1.03,0.95,1.59,2.25,1.66,3.91h-2.33c-0.1-1.03-0.46-1.83-1.08-2.4c-0.62-0.57-1.45-0.85-2.48-0.85c-1.22,0-2.18,0.49-2.88,1.47     c-0.7,0.99-1.04,2.34-1.04,4.07c0,1.83,0.32,3.21,0.97,4.14c0.65,0.93,1.61,1.39,2.88,1.39c0.94,0,1.73-0.3,2.37-0.91     c0.63-0.61,1.05-1.47,1.26-2.58H192.47z"/>
			<path class="st12" d="M194.9,157.72h1.21h1.21v7.35l0.42-0.54c1.05-1.23,2.37-1.85,3.95-1.85c1.59,0,2.82,0.43,3.68,1.29     c0.86,0.86,1.29,2.09,1.29,3.68v9.88h-1.21h-1.21v-9.27c0-1.2-0.23-2.06-0.69-2.58c-0.46-0.52-1.21-0.79-2.24-0.79     c-1.22,0-2.19,0.44-2.91,1.33c-0.72,0.89-1.08,2.08-1.08,3.59v7.72h-1.21h-1.21V157.72z"/>
			<path class="st12" d="M224,157.72h1.52h1.54l7.12,19.82h-1.44h-1.44l-2.02-5.74h-7.91l-2.08,5.74h-1.38h-1.39L224,157.72z      M222.22,169.42h6.23l-3.05-8.79h0.01L222.22,169.42z"/>
			<path class="st12" d="M247.71,172.35c-0.25,1.81-0.9,3.2-1.93,4.15c-1.03,0.95-2.41,1.43-4.12,1.43c-1.91,0-3.44-0.69-4.58-2.06     c-1.14-1.38-1.71-3.23-1.71-5.55c0-2.33,0.59-4.18,1.77-5.56c1.18-1.38,2.77-2.07,4.77-2.07c1.74,0,3.12,0.47,4.15,1.42     c1.04,0.95,1.59,2.25,1.66,3.91h-2.33c-0.1-1.03-0.46-1.83-1.08-2.4c-0.62-0.57-1.45-0.85-2.48-0.85c-1.22,0-2.18,0.49-2.88,1.47     c-0.7,0.99-1.04,2.34-1.04,4.07c0,1.83,0.32,3.21,0.97,4.14c0.65,0.93,1.61,1.39,2.88,1.39c0.94,0,1.73-0.3,2.37-0.91     c0.63-0.61,1.05-1.47,1.26-2.58H247.71z"/>
			<path class="st12" d="M253.94,177.93c-1.41,0-2.53-0.38-3.36-1.13c-0.83-0.75-1.24-1.77-1.24-3.06c0-1.29,0.39-2.32,1.16-3.09     c0.78-0.76,1.91-1.24,3.4-1.43l3.3-0.42c0.27-0.03,0.52-0.07,0.77-0.13c0.31-0.08,0.56-0.24,0.73-0.49     c0.17-0.24,0.26-0.55,0.26-0.92v-0.12c0-0.77-0.29-1.38-0.88-1.81c-0.58-0.43-1.4-0.65-2.44-0.65c-1,0-1.78,0.23-2.34,0.69     c-0.56,0.47-0.9,1.15-1.02,2.07h-2.24c0.12-1.58,0.67-2.77,1.67-3.56c1-0.8,2.43-1.19,4.29-1.19c1.75,0,3.09,0.38,4,1.14     c0.92,0.76,1.37,1.87,1.37,3.32v7.93c0,0.24,0.08,0.44,0.22,0.59c0.15,0.14,0.35,0.22,0.6,0.22c0.07,0,0.18-0.01,0.32-0.03     c0.14-0.02,0.29-0.05,0.45-0.08v1.75c-0.23,0.09-0.48,0.16-0.74,0.22c-0.26,0.05-0.48,0.08-0.66,0.08     c-0.92,0-1.58-0.25-1.99-0.75c-0.27-0.33-0.46-0.81-0.58-1.42c-0.18,0.22-0.39,0.44-0.62,0.65     C257.17,177.38,255.69,177.93,253.94,177.93 M258.97,171.82v-1.57c-0.45,0.22-0.95,0.36-1.5,0.44l-2.22,0.33     c-1.17,0.16-2.02,0.43-2.56,0.81c-0.54,0.38-0.81,0.9-0.81,1.56c0,0.81,0.22,1.43,0.66,1.87c0.44,0.44,1.06,0.65,1.87,0.65     c1.28,0,2.35-0.34,3.24-1.04c0.6-0.49,1-1.04,1.2-1.65c0.04-0.12,0.06-0.3,0.08-0.55C258.95,172.42,258.97,172.14,258.97,171.82"/>
			<path class="st12" d="M270.99,177.93c-1.93,0-3.47-0.72-4.61-2.16c-1.14-1.44-1.71-3.39-1.71-5.84c0-2.16,0.55-3.91,1.66-5.24     c1.11-1.33,2.55-1.99,4.33-1.99c1.77,0,3.17,0.75,4.2,2.25l0.19,0.27v-7.48h1.21h1.21v19.82h-1.12h-1.13v-1.97l-0.31,0.44     C273.92,177.29,272.61,177.93,270.99,177.93 M271.12,164.86c-1.36,0-2.35,0.43-2.98,1.3c-0.63,0.87-0.94,2.24-0.94,4.13     c0,1.78,0.34,3.15,1.02,4.11c0.68,0.96,1.65,1.44,2.91,1.44c1.18,0,2.12-0.44,2.84-1.33c0.72-0.89,1.08-2.06,1.08-3.51     c0-1.97-0.34-3.48-1.02-4.55C273.35,165.4,272.38,164.86,271.12,164.86"/>
			<path class="st12" d="M286.72,177.93c-2.04,0-3.64-0.65-4.81-1.94c-1.17-1.29-1.75-3.08-1.75-5.37c0-2.43,0.62-4.36,1.85-5.79     c1.23-1.43,2.89-2.15,4.98-2.15c1.89,0,3.41,0.7,4.57,2.1c1.16,1.4,1.74,3.24,1.74,5.53l-0.03,0.86h-10.53     c0.1,1.44,0.43,2.54,0.99,3.29c0.68,0.92,1.76,1.38,3.23,1.38c0.93,0,1.73-0.26,2.43-0.78c0.69-0.52,1.11-1.19,1.27-2h2.4     c-0.36,1.58-1.08,2.79-2.16,3.62C289.81,177.51,288.42,177.93,286.72,177.93 M290.77,169.22c-0.07-1.34-0.4-2.38-1-3.13     c-0.66-0.83-1.62-1.24-2.89-1.24c-1.28,0-2.3,0.48-3.06,1.43c-0.6,0.75-0.97,1.73-1.09,2.94H290.77z"/>
			<path class="st12" d="M296.2,163.11h1.14h1.16v2.14l0.5-0.65c1.09-1.28,2.39-1.93,3.9-1.93c1.29,0,2.32,0.38,3.09,1.15     c0.34,0.34,0.61,0.73,0.79,1.17l0.39-0.5c1.04-1.21,2.29-1.82,3.73-1.82c1.51,0,2.68,0.41,3.5,1.23c0.82,0.82,1.23,1.99,1.23,3.5     v10.12h-1.21h-1.21v-9.3c0-1.1-0.22-1.93-0.67-2.49c-0.45-0.57-1.1-0.85-1.97-0.85c-1.05,0-1.89,0.41-2.51,1.23     c-0.62,0.82-0.93,1.92-0.93,3.32v8.1h-1.21h-1.21v-9.88c0-0.9-0.21-1.58-0.61-2.05c-0.41-0.47-1-0.71-1.79-0.71     c-1.08,0-1.96,0.46-2.65,1.37c-0.69,0.92-1.03,2.1-1.03,3.55v7.72h-1.21h-1.21V163.11z"/>
			<path class="st12" d="M325.41,178.01c-0.84,2.22-1.6,3.67-2.26,4.35c-0.66,0.68-1.65,1.02-2.97,1.02     c-0.43,0.01-0.82-0.04-1.17-0.15v-2.25c0.37,0.14,0.83,0.21,1.39,0.21c0.55,0,1.01-0.22,1.38-0.67c0.37-0.45,0.79-1.29,1.25-2.52     l0.04-0.23v0l-5.35-14.66h1.38h1.39l3.85,11.93h0l3.91-11.93h1.32h1.34L325.41,178.01z"/>
		</g>
	</g>
</g>
</svg>